# xmcd CD database file
#
# Track frame offsets:
#	150
#	5753
#	26953
#	46950
#	66899
#	93299
#	109276
#	135076
#	159180
#	180306
#	202056
#	216397
#	235746
#
# Disc length: 3431 seconds
#
# Revision: 0
# Processed by: cddbd v1.5.2PL0 Copyright (c) Steve Scherf et al.
# Submitted via: CDex 1.51
#
DISCID=ad0d650d
DTITLE=Native - Prussian Blue
DYEAR=2007
DGENRE=Jazz
TTITLE0=One Night - Introduction
TTITLE1=Prussian Blue
TTITLE2=The Secret Language
TTITLE3=Ciment Song
TTITLE4=Upstairs
TTITLE5=Whispery Voice
TTITLE6=Diva
TTITLE7=Tradition
TTITLE8=Beyond The Border
TTITLE9=A Wish For You
TTITLE10=Step It!
TTITLE11=4 Corners
TTITLE12=Encyclopedia
EXTD=YEAR: 2007
EXTT0=
EXTT1=
EXTT2=
EXTT3=
EXTT4=
EXTT5=
EXTT6=
EXTT7=
EXTT8=
EXTT9=
EXTT10=
EXTT11=
EXTT12=
PLAYORDER=
